<svg xmlns="http://www.w3.org/2000/svg" viewBox="0 0 1200 630" width="1200" height="630">
  <rect width="1200" height="630" fill="#0f1220"/>

  <g transform="translate(60, 50) scale(2.8)">
    <path d="M14.7618 5.74842L16.9208 9.85984L22.3675 0.358398H25.7133L19.0723 11.6284L22.5712 17.5085H19.2407L16.9208 13.443L14.6393 17.5085H11.2705L14.7618 11.6284L11.393 5.74842H14.7618Z" fill="#08B5D6"/>
    <path d="M6.16211 17.5081V5.74805H9.42368V17.5081H6.16211Z" fill="#08B5D6"/>
    <path d="M3.52112 0.393555V17.6416H0.287109V0.393555H3.52112Z" fill="#08B5D6"/>
    <path d="M6.21582 0.393555H14.8399V3.08856H6.21582V0.393555Z" fill="#08B5D6"/>
  </g>

  <text x="150" y="100" font-family="'Courier New', 'Courier', monospace" font-size="64" font-weight="bold" fill="#ffffff">April 2026 Update</text>

  <rect x="60" y="155" width="1080" height="390" fill="#181c2f" stroke="#2f3658" stroke-width="2"/>
  <text x="100" y="225" font-family="'Courier New', 'Courier', monospace" font-size="31" fill="#8a91b8">WRITE BENCHMARK</text>
  <text x="100" y="300" font-family="'Courier New', 'Courier', monospace" font-size="62" font-weight="bold" fill="#ffffff">10k inserts &lt; 100ms</text>
  <rect x="100" y="335" width="230" height="62" fill="#f87171"/>
  <text x="130" y="376" font-family="'Courier New', 'Courier', monospace" font-size="34" font-weight="bold" fill="#111111">not yet</text>

  <line x1="410" y1="330" x2="410" y2="505" stroke="#2f3658" stroke-width="2"/>

  <text x="460" y="360" font-family="'Courier New', 'Courier', monospace" font-size="31" fill="#c0c0d0">finding: too little control</text>
  <text x="460" y="420" font-family="'Courier New', 'Courier', monospace" font-size="31" fill="#c0c0d0">decision: adopt DataFusion</text>
  <text x="460" y="480" font-family="'Courier New', 'Courier', monospace" font-size="31" fill="#08B5D6">may: v0.6 CRUD MVP</text>

  <text x="100" y="590" font-family="'Courier New', 'Courier', monospace" font-size="24" fill="#8a91b8">missed target, clearer architecture</text>
</svg>
